<svg xmlns="http://www.w3.org/2000/svg" viewBox="0 0 800 450" fill="none">
  <defs>
    <linearGradient id="bg3" x1="0%" y1="0%" x2="100%" y2="100%">
      <stop offset="0%" stop-color="#1e293b"/>
      <stop offset="100%" stop-color="#0f172a"/>
    </linearGradient>
    <linearGradient id="bar3" x1="0%" y1="100%" x2="0%" y2="0%">
      <stop offset="0%" stop-color="#475569"/>
      <stop offset="100%" stop-color="#64748b"/>
    </linearGradient>
  </defs>
  <rect width="800" height="450" fill="url(#bg3)"/>
  <!-- Diskret søylediagram - gradvis implementering -->
  <g transform="translate(100, 70)" opacity="0.85">
    <rect x="40" y="280" width="55" height="100" rx="4" fill="url(#bar3)"/>
    <rect x="130" y="230" width="55" height="150" rx="4" fill="url(#bar3)"/>
    <rect x="220" y="180" width="55" height="200" rx="4" fill="url(#bar3)"/>
    <rect x="310" y="130" width="55" height="250" rx="4" fill="url(#bar3)"/>
    <rect x="400" y="160" width="55" height="220" rx="4" fill="url(#bar3)"/>
    <rect x="490" y="200" width="55" height="180" rx="4" fill="url(#bar3)"/>
    <rect x="580" y="150" width="55" height="230" rx="4" fill="url(#bar3)"/>
  </g>
  <!-- Subtil sekundær rad -->
  <g transform="translate(150, 320)" opacity="0.55">
    <rect x="0" y="50" width="40" height="60" rx="3" fill="#94a3b8"/>
    <rect x="60" y="30" width="40" height="80" rx="3" fill="#94a3b8"/>
    <rect x="120" y="70" width="40" height="40" rx="3" fill="#94a3b8"/>
    <rect x="180" y="20" width="40" height="90" rx="3" fill="#94a3b8"/>
    <rect x="240" y="55" width="40" height="55" rx="3" fill="#94a3b8"/>
    <rect x="300" y="40" width="40" height="70" rx="3" fill="#94a3b8"/>
  </g>
</svg>
