<svg xmlns="http://www.w3.org/2000/svg" viewBox="0 0 800 500" width="800" height="500">
  <defs>
    <linearGradient id="bg2" x1="0%" y1="0%" x2="100%" y2="100%">
      <stop offset="0%" style="stop-color:#0c0c10"/>
      <stop offset="100%" style="stop-color:#16161e"/>
    </linearGradient>
    <linearGradient id="candleUp" x1="0%" y1="100%" x2="0%" y2="0%">
      <stop offset="0%" style="stop-color:#22c55e"/>
      <stop offset="100%" style="stop-color:#4ade80;stop-opacity:0.8"/>
    </linearGradient>
    <linearGradient id="candleDn" x1="0%" y1="0%" x2="0%" y2="100%">
      <stop offset="0%" style="stop-color:#ef4444"/>
      <stop offset="100%" style="stop-color:#f87171;stop-opacity:0.8"/>
    </linearGradient>
    <linearGradient id="trend" x1="0%" y1="0%" x2="100%" y2="0%">
      <stop offset="0%" style="stop-color:#6366f1"/>
      <stop offset="100%" style="stop-color:#a78bfa"/>
    </linearGradient>
  </defs>
  <rect width="800" height="500" fill="url(#bg2)"/>
  <g stroke="#252530" stroke-width="0.5" opacity="0.5">
    <line x1="60" y1="80" x2="60" y2="440"/><line x1="760" y1="80" x2="760" y2="440"/>
    <line x1="60" y1="80" x2="760" y2="80"/><line x1="60" y1="260" x2="760" y2="260"/>
    <line x1="60" y1="440" x2="760" y2="440"/>
  </g>
  <rect x="100" y="180" width="28" height="120" fill="url(#candleUp)" rx="2"/>
  <rect x="160" y="120" width="28" height="200" fill="url(#candleDn)" rx="2"/>
  <rect x="220" y="200" width="28" height="140" fill="url(#candleUp)" rx="2"/>
  <rect x="280" y="140" width="28" height="180" fill="url(#candleUp)" rx="2"/>
  <rect x="340" y="220" width="28" height="120" fill="url(#candleDn)" rx="2"/>
  <rect x="400" y="160" width="28" height="160" fill="url(#candleUp)" rx="2"/>
  <rect x="460" y="200" width="28" height="140" fill="url(#candleDn)" rx="2"/>
  <rect x="520" y="100" width="28" height="220" fill="url(#candleUp)" rx="2"/>
  <rect x="580" y="180" width="28" height="140" fill="url(#candleUp)" rx="2"/>
  <rect x="640" y="140" width="28" height="180" fill="url(#candleDn)" rx="2"/>
  <rect x="700" y="200" width="28" height="120" fill="url(#candleUp)" rx="2"/>
  <path d="M 80 320 Q 250 280 400 240 T 720 180" fill="none" stroke="url(#trend)" stroke-width="2" stroke-dasharray="6 4" opacity="0.9"/>
  <ellipse cx="400" cy="260" rx="350" ry="80" fill="#6366f1" opacity="0.06"/>
</svg>
